<svg xmlns="http://www.w3.org/2000/svg" width="100.409" height="100.409" viewBox="0 0 100.409 100.409">
  <g id="Group_57" data-name="Group 57" transform="translate(-374 -256.3)">
    <rect id="Rectangle_70" data-name="Rectangle 70" width="71" height="71" transform="translate(424.205 256.3) rotate(45)" fill="#959781"/>
    <g id="Rectangle_71" data-name="Rectangle 71" transform="translate(423.891 267.3) rotate(45)" fill="none" stroke="#ceab51" stroke-width="1">
      <rect width="55" height="55" stroke="none"/>
      <rect x="0.5" y="0.5" width="54" height="54" fill="none"/>
    </g>
    <path id="Path_7204" data-name="Path 7204" d="M-250-849.107c.575-.224,1.152-.444,1.726-.672.408-.162.811-.334,1.227-.506,0-.2-.069-.257-.286-.2a1.431,1.431,0,0,1-.477-.045,3.6,3.6,0,0,1,.411-.2c.446-.149.9-.286,1.37-.436l-.078-.22.363-.134.023-.1c-.134-.028-.279-.1-.4-.074-.249.063-.48.194-.725.274a3.427,3.427,0,0,1-.48.088l-.035-.106c.359-.153.71-.33,1.078-.454.566-.19,1.145-.337,1.715-.515.131-.041.336-.117.351-.2a2.459,2.459,0,0,0-.016-.733c-.025-.184-.157-.365-.144-.54.051-.7.141-1.388.223-2.145l-.2.181a12.707,12.707,0,0,1,1.5-4.489c-.443-.12-.372-.364-.219-.644.118-.216.187-.461.319-.667.235-.368.5-.717.754-1.074l.086.032-.369,1.276.044.029c.238-.331.479-.659.709-.994a.248.248,0,0,0,.014-.192c-.156-.467-.325-.929-.481-1.4-.053-.159-.079-.326-.123-.488q-.493-1.825-.987-3.651a3.247,3.247,0,0,1-.054-.321l.09-.029.634,1.69.083-.031c-.3-1.721-1.091-3.328-1.307-5.07l.122-.035c.168.491.329.984.506,1.471.3.831.616,1.659.951,2.557a2.615,2.615,0,0,0,.041-.369.778.778,0,0,1,.008-.344l.964,2.346.1-.023-.165-.778.067-.024,1.238,3.11.124.007a.839.839,0,0,0,.028-.316c-.11-.339-.246-.67-.372-1l.109-.058.557,1.055c.972-.576,1.853-1.28,2.848-1.79l.069.095-.2.235.033.079c.327-.12.786-.147.952-.381a1.774,1.774,0,0,1,1.116-.627,8.778,8.778,0,0,1,1.431-.2,1.15,1.15,0,0,1,.328.08l-.224.258a1.168,1.168,0,0,0,.254-.017,5.9,5.9,0,0,1,2.618.185,7.026,7.026,0,0,1,2.514.75,2.717,2.717,0,0,0,.568.21c.066.019.149-.022.316-.051l-.808-.451c.035-.051.053-.083.058-.082a6.216,6.216,0,0,1,1.11.428c.971.594,1.915,1.234,2.867,1.86a3.139,3.139,0,0,1,.292.245l-.055.106-1.189-.384c.291.615.918.786,1.484,1.108.3-.461.62-.932.91-1.423.79-1.341,1.566-2.691,2.349-4.036a4,4,0,0,1,.261-.394c.046-.06.133-.154.175-.142.4.119.482-.241.63-.446.271-.373.477-.793.744-1.169.512-.72,1.049-1.423,1.581-2.14.244.123.165.272.077.424-.372.645-.762,1.28-1.108,1.938a17.734,17.734,0,0,0-.959,2.151l.545-.766c.156.225.037.374-.06.531-.466.756-.93,1.513-1.341,2.325l.331-.143a3.9,3.9,0,0,1-.2.471c-.639,1.062-1.285,2.119-1.924,3.18a.254.254,0,0,0-.024.205c.139.281.3.552.441.831a1.137,1.137,0,0,1,.063.256c-.11.008-.262.066-.322.015a8.108,8.108,0,0,1-.6-.618c-.159.192-.329.361-.129.637.04.055-.006.172-.018.354.093.214.247.523.356.847a1.152,1.152,0,0,1-.037.424c-.009.095-.012.19-.017.285l.154.01.1-.525a1.156,1.156,0,0,1,.217.257,10.3,10.3,0,0,1,.465,1.23c.092.34.272.38.569.337a5.025,5.025,0,0,1,.827-.036c.085,0,.168.086.227.209l-.91.173.026.166,1.637-.2c.088-.011.194-.047.26-.012a1.982,1.982,0,0,1,.323.262,1.471,1.471,0,0,1-.314.205c-.486.164-.978.312-1.469.46-.074.022-.159,0-.234.023-.14.037-.385.072-.4.139-.043.262-.315.537-.014.807a.169.169,0,0,1,.056.113,9.075,9.075,0,0,1-.069,1.285c-.118.646-.305,1.278-.483,2,.5-.21.381-.714.6-1l.114.046c-.375,1-.722,2.014-1.135,3s-.895,1.952-1.375,2.989a12.16,12.16,0,0,0,1.521-2.14.521.521,0,0,1-.013.193c-.2.393-.412.775-.6,1.172a8.013,8.013,0,0,1-1.3,1.714,4.964,4.964,0,0,1-1.848,1.607,1,1,0,0,0-.376.28,2.153,2.153,0,0,0-.213.468,1.885,1.885,0,0,0-.631.234,8.678,8.678,0,0,1-2.366,1.022,27.162,27.162,0,0,1-3.045.868.659.659,0,0,0-.474.453c-.178.407-.419.787-.633,1.178l-.083-.031.274-.953-.084-.028c-.071.182-.149.361-.213.545-.217.628-.421,1.26-.649,1.884-.043.118-.173.2-.263.3l-.079-.061-.159.443h-.136a2.892,2.892,0,0,0,.178-1.4l-.322.644-.133-.045a6.456,6.456,0,0,1,.178-.752.806.806,0,0,0-.073-.8c-.066-.09-.233-.119-.274-.211a5.005,5.005,0,0,1-.354-.977c-.088-.415-.175-.527-.6-.659s-.84-.307-1.255-.475c-.219-.089-.429-.2-.642-.307l-.044.074.891.772c.015,0-.024.019-.044.008-.676-.375-1.363-.73-2.019-1.138-.49-.3-.826-.834-1.443-.967a1.026,1.026,0,0,1-.44-.281c-.236-.225-.455-.469-.67-.714-.322-.366-.648-.731-.948-1.116a4.607,4.607,0,0,1-.448-.741c-.032-.062.036-.175.071-.32l-.114-.177-.39.225c-.056-.1-.1-.163-.132-.233-.355-.766-.716-1.531-1.059-2.3-.109-.245-.234-.318-.488-.2a.572.572,0,0,1-.667-.019c.336-.354.985-.16,1.183-.814a2.656,2.656,0,0,0-.44.045c-1.035.294-2.069.588-3.1.9-.646.2-1.279.432-1.924.63-.331.1-.674.162-1.012.242Zm24.148-8.746c.011-.02.061-.114.112-.205.26-.461.519-.924.785-1.382.044-.076.155-.2.171-.191.241.14.212-.1.275-.193s.1-.231.175-.327a.41.41,0,0,0-.044-.6c-.473-.5-.95-.992-1.424-1.488a4.239,4.239,0,0,0-.763-.781c-.695-.414-1.431-.761-2.159-1.116a1.8,1.8,0,0,0-.5-.084l-.045.112c.176.1.348.212.53.3.2.1.428.148.622.258.316.179.332.349.1.628a.9.9,0,0,0-.083.192,1.165,1.165,0,0,0-1.037-.6,5.619,5.619,0,0,1-.832-.135c-.36-.1-.478-.305-.389-.619.148.048.294.1.442.143s.317.085.489.13c-.045-.427-.359-.567-.86-.484a1.667,1.667,0,0,0-.431-.185c-.538-.035-1.081-.015-1.615-.077a3.8,3.8,0,0,0-1.465.072,1.615,1.615,0,0,1-1.31.01c-.028-.016-.088.008-.127.025a7.226,7.226,0,0,0-.945.431c-.942.592-1.867,1.212-2.8,1.819a.643.643,0,0,1-.145.051l-.109-.306-.394.292c.161.378.315.729.461,1.083s.283.713.425,1.068.291.685.416,1.036.222.714.337,1.07.231.689.347,1.033l-.108.044-.449-.6-.043.023.789,1.957.533-2.072.133.028-.2,1.813c.512.033.472-.543.847-.665.411.433-.3.613-.219,1l1.222-1,.1.086-.9,1.28,2.59-.548.07.158c-.261.448-.936.317-1.232.749.189-.011.355-.017.521-.031a4.8,4.8,0,0,0,.821-.081c.659-.172,1.309-.38,1.962-.575.356-.106.71-.218,1.066-.327l-.025-.093c-.283.057-.565.12-.85.17-.266.046-.532.195-.8.069l-.017-.117,4.644-1.074a.764.764,0,0,1-.016-.155c.013-.1.035-.2.054-.3a2.829,2.829,0,0,1,.225.192,1.526,1.526,0,0,1,.141.228c.078-.756-.332-1.3-.441-1.935l.668,1.17.3-3.078h.094c0,.35,0,.7,0,1.051a4.06,4.06,0,0,0,.033.765A8.063,8.063,0,0,0-225.852-857.853Zm-5.116,9.67c.563-1.053,1.07-2.071,1.641-3.052s1.206-1.928,1.848-2.943a1.741,1.741,0,0,0-.232,0c-1.3.271-2.6.547-3.9.815-.17.035-.347.039-.521.057l0-.07.765-.438-.023-.1-.827.1-.028-.108.441-.4-.017-.053-1.7.512v.1l.332.125.007.082-2.823.762,1.325,3.351.074-.026-.545-2.709a4.405,4.405,0,0,1,.8,2.022,6.607,6.607,0,0,1-.214,2.446c.059.017.177.019.2.063a3.643,3.643,0,0,1,.282.779,9.5,9.5,0,0,0,1.041,2.843c.06.112.13.22.242.409.774-1.548,1.12-3.208,2.23-4.559Zm7.287-6.858c-.042.4-.23.564-.771.691-.561.131-.558.132-.592.7-.022.361,0,.752-.46.885-.371.108-.38.487-.548.74-.473.713-.906,1.452-1.352,2.183a.417.417,0,0,0-.025.146c.7-.866,1.339-1.757,1.993-2.641a1.783,1.783,0,0,1,.326-.273,1.143,1.143,0,0,1-.059.393c-.487.861-.989,1.713-1.5,2.592.186.1.1.31-.013.5a3.551,3.551,0,0,1-.41.572c-.074.08-.223.092-.338.135a1.134,1.134,0,0,1,.038-.419,5.346,5.346,0,0,1,.424-.609l-.093-.065c-.112.159-.229.315-.334.478-.116.18-.156.451-.481.352-.027-.008-.1.056-.116.1-.174.435-.341.872-.51,1.308l.083.04.412-.377a.6.6,0,0,1-.118.363c-.561.818-1.111,1.644-1.695,2.445a3.445,3.445,0,0,0-.507,1.43l.959-.394-.336-.162c.6-.274,1.155-.518,1.7-.787.844-.416,1.686-.837,2.516-1.282a1.966,1.966,0,0,0,.744-1.079l-.441.158a.59.59,0,0,1,.155-.36q.761-.791,1.532-1.571a4.586,4.586,0,0,0,1.024-1.979l-.087-.05-.615.992-.1-.051c.09-.293.159-.594.274-.877.322-.793.666-1.577.992-2.368a.922.922,0,0,0,.084-.425c-.07-.658-.162-1.313-.251-2.006-.138.026-.247.037-.35.066-.243.069-.479.16-.725.215-.3.066-.6.1-.9.155l.01.08Zm-17.682,5.229.066-.06c.084.064.2.11.245.194.156.3.281.614.428.918.307.635.62,1.268.93,1.9l.094-.108c.125.019.288-.006.37.064.549.466,1.1.937,1.611,1.441.191.188.292.438.637.341.079-.022.217.093.3.173a3.45,3.45,0,0,0,1.347.821c-.149-.4-.272-.717-.389-1.04-.353-.971-.706-1.942-1.053-2.916a4.6,4.6,0,0,1-.3-.988,9.972,9.972,0,0,0-.795-1.95l-.092.006-1.133,2.184-.1-.044.156-.542c-.322-.067-.226-.254-.128-.454.226-.457.444-.919.7-1.444-.27.054-.458.081-.639.13a5.779,5.779,0,0,1-2.545.557Zm2-5.453c.388-.617-.007-1.106-.216-1.626a2.208,2.208,0,0,1-.147-.378c-.055-.277-.085-.559-.127-.838a1.692,1.692,0,0,0-.04-.2c-.1-.368-.2-.738-.309-1.1a2.858,2.858,0,0,0-.652-1.455l-.818,1.363h.292a.725.725,0,0,1-.024.252c-.231.464-.493.914-.706,1.386a4.658,4.658,0,0,0-.205.795l.09.021.589-1.124.092.017a3.935,3.935,0,0,1-.225,1.131,3.329,3.329,0,0,0-.329,1.768c.024.612.08,1.223.125,1.875l1.62-.528-.044-.138c-.229.068-.455.15-.687.2s-.427.322-.747.033c.224-.073.4-.127.576-.188.22-.077.513-.1.638-.256A.988.988,0,0,1-240-854.6c.147-.034.291-.085.463-.137a2.081,2.081,0,0,1-.326-.43c-.04-.1.029-.241.05-.364a1.765,1.765,0,0,1,.29.1A.765.765,0,0,1-239.362-855.265Zm7.594.671a1.612,1.612,0,0,0-1.192.038,6.985,6.985,0,0,1-2.024.835c-.006,0-.006.036-.012.073a5.373,5.373,0,0,0,.888-.1c.317-.088.607-.269.919-.381C-232.721-854.3-232.243-854.44-231.768-854.593Zm8.428-3.153,1.142-.266-.455-1.045-.1,0Z" transform="translate(655.985 1161.145)" fill="#ceab51"/>
  </g>
</svg>
