<svg xmlns="http://www.w3.org/2000/svg" width="100.409" height="100.409" viewBox="0 0 100.409 100.409">
  <g id="Group_54" data-name="Group 54" transform="translate(-843.3 -1110)">
    <rect id="Rectangle_70" data-name="Rectangle 70" width="71" height="71" transform="translate(893.505 1110) rotate(45)" fill="#400000"/>
    <g id="Rectangle_71" data-name="Rectangle 71" transform="translate(893.191 1121) rotate(45)" fill="none" stroke="#ceab51" stroke-width="1">
      <rect width="55" height="55" stroke="none"/>
      <rect x="0.5" y="0.5" width="54" height="54" fill="none"/>
    </g>
    <g id="Group_24" data-name="Group 24" transform="translate(-2182.656 5566.344)">
      <rect id="Rectangle_90" data-name="Rectangle 90" width="40" height="40" transform="translate(3055.656 -4426.344)" fill="none"/>
      <path id="Path_7205" data-name="Path 7205" d="M3176.034-4370.505h-.547c-1.885,0-3.771-.007-5.655.008a.55.55,0,0,1-.561-.363c-.138-.258-.032-.4.115-.577q3.391-4.155,6.776-8.315c.1-.118.188-.237.348-.439h-8.274c-.6,0-.816-.353-.531-.866q2.909-5.251,5.817-10.5a1.4,1.4,0,0,1,1.375-.829c3.992.033,7.985.016,11.978.017.215,0,.42-.042.54.25s-.046.406-.2.565q-2.569,2.748-5.138,5.5c-.111.117-.216.239-.4.442h.542c2.4,0,4.8,0,7.2.007a.648.648,0,0,1,.463.2.494.494,0,0,1-.08.69q-3.888,4.362-7.748,8.746c-.063.071-.117.148-.241.307h.5c1.594,0,3.188.018,4.782-.014.49-.008.809.1.876.671-.039.051-.11.151-.19.245q-7.631,8.93-15.259,17.863a.86.86,0,0,1-.737.346c-1.386-.021-2.772-.007-4.158-.009-.2,0-.392.043-.52-.219a.546.546,0,0,1,.059-.635q4.279-6.287,8.544-12.586C3175.8-4370.141,3175.889-4370.28,3176.034-4370.505Z" transform="translate(-102.853 -31.871)" fill="#ceab51"/>
    </g>
  </g>
</svg>
