<svg xmlns="http://www.w3.org/2000/svg" width="100.409" height="100.409" viewBox="0 0 100.409 100.409">
  <g id="Group_52" data-name="Group 52" transform="translate(-374 -256.3)">
    <rect id="Rectangle_70" data-name="Rectangle 70" width="71" height="71" transform="translate(424.205 256.3) rotate(45)" fill="#790606"/>
    <g id="Rectangle_71" data-name="Rectangle 71" transform="translate(423.891 267.3) rotate(45)" fill="none" stroke="#ceab51" stroke-width="1">
      <rect width="55" height="55" stroke="none"/>
      <rect x="0.5" y="0.5" width="54" height="54" fill="none"/>
    </g>
    <g id="Group_22" data-name="Group 22" transform="translate(1909.75 -259.828)">
      <path id="Path_7203" data-name="Path 7203" d="M-1474.719,560.22a4.241,4.241,0,0,1-2.444,2.772,1.806,1.806,0,0,1-.215.086l-.049-.05c.057-.086.108-.176.171-.256.3-.386.623-.757.9-1.158a2.446,2.446,0,0,0,.316-.7.537.537,0,0,0-.344-.706,3.291,3.291,0,0,0-1.037-.2,14.28,14.28,0,0,0-5.517,1.049,5.079,5.079,0,0,0-.934.513,2.506,2.506,0,0,0-.9,3.309,2.059,2.059,0,0,0,.224.434.9.9,0,0,1,.146.71,41.411,41.411,0,0,0-.237,5.824c.055,1.527.162,3.053.277,4.577a41.522,41.522,0,0,1-.062,7.4,77.267,77.267,0,0,1-1.344,8.073,1,1,0,0,1-.054.144h-.089c-.088-.382-.183-.762-.262-1.146-.465-2.253-.863-4.518-1.107-6.806a38.154,38.154,0,0,1-.166-6.4c.127-2.059.277-4.117.357-6.178a40.133,40.133,0,0,0-.252-5.645.714.714,0,0,1,.114-.479,3.138,3.138,0,0,0,.539-1.96,2.557,2.557,0,0,0-1.295-1.949,8.185,8.185,0,0,0-2.536-1,14.1,14.1,0,0,0-4.01-.462,2.517,2.517,0,0,0-.815.191.528.528,0,0,0-.332.728,5.721,5.721,0,0,0,.563,1.049,10.435,10.435,0,0,0,.661.81.588.588,0,0,1,.125.264,5.022,5.022,0,0,1-1.682-1.085,3.294,3.294,0,0,1-1-1.749v-.356a17.624,17.624,0,0,1,1.453-3.768c.328.56.635,1.126.984,1.665a1.707,1.707,0,0,0,1.386.813c1.206.073,2.411.151,3.617.219.319.018.641,0,.992,0-.061-.079-.1-.124-.133-.171-.551-.763-1.143-1.5-1.643-2.3a13.267,13.267,0,0,1-2.045-5.386,5.916,5.916,0,0,1,.371-3.166,6.071,6.071,0,0,1,4.036-3.457,15.9,15.9,0,0,1,1.586-.32h1.069a1,1,0,0,0,.148.037,6.968,6.968,0,0,1,2.433.67,5.759,5.759,0,0,1,3.318,4.052,7.6,7.6,0,0,1-.268,3.8,16.881,16.881,0,0,1-3.3,6l-.2.242c1.579-.025,3.105-.053,4.627-.226a1.913,1.913,0,0,0,1.428-.833,6.556,6.556,0,0,0,.411-.634c.186-.343.348-.7.527-1.06.034.065.068.122.1.181a18.025,18.025,0,0,1,1.385,3.582Zm-11.822-1.426c0-.462.022-.927,0-1.389a2.468,2.468,0,0,0-1.158-2,1.694,1.694,0,0,1-.144-.125,1.8,1.8,0,0,0,1.305-1.069c.239-.489.4-1.018.59-1.53.027-.071.043-.146.065-.223.04.02.061.023.064.032.05.17.091.344.146.512.324.971.646,1.944,1.8,2.3l-.261.192a2.176,2.176,0,0,0-.955,1.474c-.074.6-.057,1.211-.078,1.817,0,.007.022.015.035.023.257-.276.506-.56.771-.828a11.689,11.689,0,0,0,3.528-7.137,4.611,4.611,0,0,0-.62-3.011,5.323,5.323,0,0,0-7.554-1.36,4.448,4.448,0,0,0-1.885,3.943,10.676,10.676,0,0,0,.651,3.123A13.779,13.779,0,0,0-1486.541,558.795Z" fill="#ceab51"/>
    </g>
  </g>
</svg>
