<svg xmlns="http://www.w3.org/2000/svg" width="100.409" height="100.409" viewBox="0 0 100.409 100.409">
  <g id="Group_55" data-name="Group 55" transform="translate(-843.3 -2457)">
    <rect id="Rectangle_93" data-name="Rectangle 93" width="71" height="71" transform="translate(893.505 2457) rotate(45)" fill="#400000"/>
    <g id="Rectangle_94" data-name="Rectangle 94" transform="translate(893.191 2468) rotate(45)" fill="none" stroke="#ceab51" stroke-width="1">
      <rect width="55" height="55" stroke="none"/>
      <rect x="0.5" y="0.5" width="54" height="54" fill="none"/>
    </g>
    <g id="Group_37" data-name="Group 37" transform="translate(-1368 6914)">
      <rect id="Rectangle_95" data-name="Rectangle 95" width="40" height="40" transform="translate(2241 -4427)" fill="none"/>
      <g id="Group_38" data-name="Group 38" transform="translate(2246.926 -4422.36)">
        <path id="Path_7206" data-name="Path 7206" d="M2343.189-4364.933a21.474,21.474,0,0,0-1.285-2.1,1.9,1.9,0,0,0-1.943-.656,3.305,3.305,0,0,0-2.009,1.35c-.4.471-.771.845-1.464.572-.184-.072-.322-.1-.4-.3-.147-.385-.316-.763-.484-1.14-.728-1.638-1.035-1.831-2.83-1.79a1.689,1.689,0,0,0-1.8,1.391c-.151.538-.259,1.087-.4,1.626-.028.105-.131.261-.214.271-.578.07-1.16.108-1.75.157-.043-.258-.071-.481-.119-.7a2.168,2.168,0,0,0-2.477-1.867,9.013,9.013,0,0,0-1.75.369,1.489,1.489,0,0,0-1.07,1.231c-.092.47-.186.941-.3,1.406-.027.112-.116.273-.205.295-.4.1-.8.153-1.165.217a13.893,13.893,0,0,0-.551-1.282,1.916,1.916,0,0,0-2.043-1.093,11.793,11.793,0,0,0-1.177.223,2.579,2.579,0,0,0-1.75,1.288c-.332.605-.611,1.24-.9,1.866a.522.522,0,0,0-.014.273c.112.818.235,1.635.343,2.453q.583,4.459,1.158,8.918c.239,1.836.483,3.671.715,5.508.03.234.12.312.354.314.573.007,1.145.05,1.718.06.634.011,1.269,0,1.932,0,0-.1,0-.218,0-.336q-.057-2.239-.115-4.478c-.057-2.212-.11-4.424-.177-6.636-.008-.247.062-.384.306-.413a5.629,5.629,0,0,1,.711-.062.378.378,0,0,1,.426.413,7.745,7.745,0,0,0,.094.793q.54,4.242,1.082,8.485c.1.762.206,1.522.309,2.276h3.814c.031-.542.063-1.058.089-1.575q.251-4.832.506-9.664c.006-.111.088-.3.153-.311a7.489,7.489,0,0,1,1.249-.072c.228.01.327.2.333.46q.127,5.357.278,10.714c0,.143.016.285.025.439h4.478c.01-.088.018-.141.021-.193q.286-5.371.571-10.742a1.145,1.145,0,0,1,1.014-1.035,1.089,1.089,0,0,1,.862,1.088q-.062,4.738-.123,9.477c-.006.438,0,.876,0,1.386h5.132c.01-.1.024-.208.029-.312.082-1.824.159-3.648.244-5.473q.3-6.371.6-12.741A.7.7,0,0,0,2343.189-4364.933Z" transform="translate(-2315.073 4369.001)" fill="#ceab51"/>
        <path id="Path_7207" data-name="Path 7207" d="M2492.282-4064.7a2.052,2.052,0,0,0-.206-.026q-5.576,0-11.152,0a.742.742,0,0,0-.4.123,3.673,3.673,0,0,0-.955,4.9,9.95,9.95,0,0,0,.925,1.15.662.662,0,0,0,.442.192q5.357.016,10.713.007a.6.6,0,0,0,.637-.642c0-.12,0-.24,0-.36Z" transform="translate(-2465.893 4089.072)" fill="#ceab51"/>
      </g>
    </g>
  </g>
</svg>
