<svg xmlns="http://www.w3.org/2000/svg" width="100.409" height="100.409" viewBox="0 0 100.409 100.409">
  <g id="Group_53" data-name="Group 53" transform="translate(-374 -256.3)">
    <rect id="Rectangle_70" data-name="Rectangle 70" width="71" height="71" transform="translate(424.205 256.3) rotate(45)" fill="#6e1e17"/>
    <g id="Rectangle_71" data-name="Rectangle 71" transform="translate(423.891 267.3) rotate(45)" fill="none" stroke="#ceab51" stroke-width="1">
      <rect width="55" height="55" stroke="none"/>
      <rect x="0.5" y="0.5" width="54" height="54" fill="none"/>
    </g>
    <path id="Path_7209" data-name="Path 7209" d="M-1876.6-184.387c-.828-.116-1.659-.215-2.483-.355a8.806,8.806,0,0,1-1.127-.32c-1.071-.334-2.162-.616-3.2-1.031a6.624,6.624,0,0,1-1.734-1.084,6.087,6.087,0,0,1-2.32-3.434,7.83,7.83,0,0,1,.8-5.606.976.976,0,0,0,.125-.353,28.868,28.868,0,0,1-5.709,2.922,39.03,39.03,0,0,1-6.08,1.881l-.034-.1,2.12-.926-.019-.071-.463.028-.021-.059,1.25-.522-.013-.111a2.77,2.77,0,0,0-.527.036c-.69.179-1.375.377-2.062.568l-.033-.084,1.829-.8-.022-.081-.444.053-.028-.071.756-.312-.04-.105-5.8,2.057-.055-.14,2.037-.83-.265-.113,1.631-.731-.024-.074-1.1.256-.027-.071,2.071-.962-.019-.061-1.271.2-.026-.09c.481-.266.959-.54,1.446-.8,1.3-.689,2.629-1.337,3.908-2.068.726-.415,1.361-.986,2.063-1.447,2.154-1.413,3.979-3.229,5.983-4.826.059-.047.117-.1.172-.15.012-.011.007-.04.019-.127-.164.1-.295.185-.423.27-1.971,1.294-3.918,2.628-5.92,3.871s-4.078,2.4-6.116,3.609a14.285,14.285,0,0,1-1.279.748l.954-.824-.041-.07-.786.272-.035-.091c.092-.075.188-.145.275-.225.045-.041.115-.132.106-.143-.179-.212.087-.277.152-.406l-.076-.084-1.856,1.34c.467-.643,1.243-.991,1.6-1.725l-.073-.086-1.894,1.453-.062-.065,1.38-1.316-.032-.049-.314.06a44.935,44.935,0,0,0,6.173-6.819l-.051-.066a.68.68,0,0,0-.172.081c-.2.173-.348.419-.694.293-.069-.025-.246.157-.328.275a1.045,1.045,0,0,1-.733.536,1.736,1.736,0,0,0-.632.391c-.4.286-.784.587-1.183.872a.453.453,0,0,1-.349.056c.239-.278.48-.554.717-.834s.626-.417.738-.767l-2.3,1.392-.072-.094c1.424-1.518,3.2-2.679,4.539-4.416-.853.159-1.326.85-2.052,1.079.5-.757.984-1.509,1.493-2.242a.576.576,0,0,0,.032-.654,12.537,12.537,0,0,1-.45-1.323c-.262-.843-.549-1.679-.762-2.534a7.059,7.059,0,0,1-.252-2.59,1,1,0,0,0-.2-.556,4.557,4.557,0,0,1-.344-.477l.49.211c.06-.6-.476-.759-.748-1.089l.051-.083.722.381c.045-.389.089-.763.132-1.137l.084-.026.265,1.173.092-.006.085-.558.059-.039c.061.117.172.233.174.351a.872.872,0,0,0,.677.845c1.618.645,3.238,1.286,4.837,1.978a8.928,8.928,0,0,1,1.679.992.959.959,0,0,0,.872.194c.263-.068.518-.169.782-.231.453-.105.907-.213,1.367-.277.367-.051.424-.1.386-.454a1.086,1.086,0,0,1,.076-.369,2.4,2.4,0,0,0,.1-.3c.093-.72.089-.718-.565-1.05a.94.94,0,0,1-.333-.276h.49l-.2-.282.317-.064-1.171-.748.12-.532,1.116.3a16.176,16.176,0,0,0-2.981-2.064c.272.118.546.234.816.356.288.13.577.26.859.4s.554.3.86.462c.295-.515-.385-.468-.41-.806a4.462,4.462,0,0,1,.423.15,13.506,13.506,0,0,1,4.374,2.95,29.716,29.716,0,0,0,3.519,2.98,7.5,7.5,0,0,0,2.666,1.206c.584.173,1.171.344,1.747.542a.847.847,0,0,1,.629,1.106c-.044.253-.058.512-.085.761.61.027,1.178.012,1.735.085,1.211.158,2.416.359,3.623.544.075.011.156.059.221.041.921-.251,1.908.033,2.817-.368.352-.155.648.107.61.5a4.8,4.8,0,0,1-.714,1.944,2.932,2.932,0,0,1-.2.261,2.188,2.188,0,0,0-.462,1.27,6.74,6.74,0,0,1-1.189,3.316.3.3,0,0,1-.2.109,1.366,1.366,0,0,0-1.245.758,9.53,9.53,0,0,1-1.271,1.531.51.51,0,0,1-.321.15c.053-.1.11-.2.16-.306a.893.893,0,0,0,.118-.753,2.243,2.243,0,0,1,.011-.81c.013-.233-.072-.372-.319-.311a4.676,4.676,0,0,1-1.849-.076.323.323,0,0,0-.369.179,12.6,12.6,0,0,1-.916,1.355,4.368,4.368,0,0,1-1.062.842c.511-.836.121-1.649.042-2.5-.334-.066-.675-.121-1.011-.2-.37-.089-.734-.2-1.1-.3-.429-.121-.854-.261-1.288-.358a.449.449,0,0,0-.377.122q-1.037,1.351-2.039,2.728c-.192.262-.127.441.177.591.538.266,1.085.513,1.614.8a4.048,4.048,0,0,1,1.51,1.462,12.416,12.416,0,0,0,1.109,1.327.318.318,0,0,0,.547-.006c.324-.381.632-.776.951-1.162a3.027,3.027,0,0,1,.245-.238l.094.055a3.357,3.357,0,0,0-.06.469c0,.435.016.87.049,1.3a.341.341,0,0,0,.189.242,3.534,3.534,0,0,0,2.1.254.888.888,0,0,0,.633-.6c.2-.55.451-1.079.693-1.644a1.307,1.307,0,0,1,.346,1.148c-.037.314-.094.626-.132.941a1.415,1.415,0,0,0,.211,1.033.409.409,0,0,1-.017.539,1.109,1.109,0,0,0-.16.348,1.316,1.316,0,0,1-1.767,1.038,1.938,1.938,0,0,0-1.343,0,.187.187,0,0,1-.153-.007.967.967,0,0,0-1.024.066,1.086,1.086,0,0,1-1.324-.116,6.042,6.042,0,0,0-2.419-1.257c-.03-.007-.062-.008-.109-.014a.842.842,0,0,0,.076.894c.314.511.65,1.008.978,1.511.07.107.142.213.226.339l-.251.11.343.418-.061.078a6.092,6.092,0,0,1-.905-.633,6.373,6.373,0,0,1-.969-1.19,2.25,2.25,0,0,0-1.142-.808,4.562,4.562,0,0,0,.29,1.083,6.657,6.657,0,0,0,.962,1.31c.5.529,1.074.995,1.62,1.483a1.523,1.523,0,0,0,.247.149l-.087.113-1.094-.457-.05.053c.358.293.718.583,1.073.88.122.1.224.229.348.33a3.5,3.5,0,0,0,.62.467c.339.169.708.276,1.06.42a.767.767,0,0,1,.182.154c-.078.04-.16.119-.233.112-.334-.032-.667-.089-1.094-.151a6.387,6.387,0,0,0,2.413,1.253l-.012.13a1.9,1.9,0,0,1-.6.027c-.926-.267-1.843-.566-2.764-.848-.054-.017-.126.023-.189.036.026.063.034.157.081.185a5.1,5.1,0,0,1,.56.339,1.525,1.525,0,0,1-1.011-.091,2.416,2.416,0,0,1-.383-.182.567.567,0,0,0-.646.024.331.331,0,0,1-.272.032c-.291-.108-.414.066-.564.306l2.1.637Zm-5.055-24.714c.619.427,1.194.83,1.779,1.219a.435.435,0,0,0,.345.079,5.692,5.692,0,0,1,2.335-.695,2.387,2.387,0,0,0-2.354-1.036C-1880.259-209.42-1880.956-209.248-1881.658-209.1Z" transform="translate(2306.607 508.359)" fill="#ceab51"/>
  </g>
</svg>
