<svg xmlns="http://www.w3.org/2000/svg" width="100.409" height="100.409" viewBox="0 0 100.409 100.409">
  <g id="Group_58" data-name="Group 58" transform="translate(-374 -256.3)">
    <rect id="Rectangle_70" data-name="Rectangle 70" width="71" height="71" transform="translate(424.205 256.3) rotate(45)" fill="#92a434"/>
    <g id="Rectangle_71" data-name="Rectangle 71" transform="translate(423.891 267.3) rotate(45)" fill="none" stroke="#ceab51" stroke-width="1">
      <rect width="55" height="55" stroke="none"/>
      <rect x="0.5" y="0.5" width="54" height="54" fill="none"/>
    </g>
    <path id="Path_7210" data-name="Path 7210" d="M1622.423-1678h.327c.233.043.466.089.7.127a9.127,9.127,0,0,1,5.566,2.82,24.291,24.291,0,0,0,5.1,4.569,8.1,8.1,0,0,0,2.332,1.221c.589.138,1.208.142,1.807.24,1.774.292,3.547.586,5.314.915a3.358,3.358,0,0,1,1.108.455,1.167,1.167,0,0,1,.511,1.5,3.227,3.227,0,0,1-.533.965,16.651,16.651,0,0,1-1.514,1.578,14.638,14.638,0,0,0-4.714,7.341,20.732,20.732,0,0,1-.762,2.225,3.554,3.554,0,0,1-1.589,1.956q-1.072.595-2.122,1.227a5.529,5.529,0,0,0-.918.671,11.433,11.433,0,0,0-2.072,2.643,23.482,23.482,0,0,1-6.5,7.549,26.537,26.537,0,0,1-2.575,1.6,5.946,5.946,0,0,1-1.228.378h-.72c-.323-.092-.653-.164-.966-.283a.974.974,0,0,1-.464-.326,4.745,4.745,0,0,0-1.722-1.569,8.066,8.066,0,0,0-3.155-.887.987.987,0,0,1-.961-.978,3.488,3.488,0,0,1,.344-1.937,10.151,10.151,0,0,0,1.144-5.069,47.877,47.877,0,0,1,.289-8.424,6.373,6.373,0,0,1,.72-2.631c1.062-1.675,2.165-3.324,3.3-4.953.552-.8,1.273-1.476,1.8-2.287a18.806,18.806,0,0,0,2.778-6.657A4.773,4.773,0,0,0,1622.423-1678Zm-.97,35.522c.454-.482.936-.967,1.389-1.479a6.9,6.9,0,0,0,1.433-2.169,3.012,3.012,0,0,0,.168-1.176.78.78,0,0,0-.935-.74,1.925,1.925,0,0,1-.487-.031,3.631,3.631,0,0,1-2.128-1.425,1.012,1.012,0,0,0-.986-.416,3.355,3.355,0,0,0-1.052.3,2.949,2.949,0,0,0-1.214,1.375,10.041,10.041,0,0,0-.907,2.921c-.067.369-.113.74-.163,1.074.215-.188.439-.374.651-.572a4.7,4.7,0,0,1,1.878-1.208,1.847,1.847,0,0,1,2.476,1.7A14.03,14.03,0,0,1,1621.453-1642.478Zm4.437-3.284c.236-.311.487-.612.705-.934a7.766,7.766,0,0,0,1.592-5.551c-.035-.249-.01-.586-.293-.614-.183-.018-.4.226-.588.374-.21.167-.382.389-.606.533-.259.167-.462.058-.469-.244a1.976,1.976,0,0,1,.109-.665c.3-.886.63-1.762.927-2.649a7.944,7.944,0,0,0,.2-.928,8.706,8.706,0,0,0-1.7,4.161,1.407,1.407,0,0,1-.5.965,3.372,3.372,0,0,1-2.1,1.023c-.356.018-.578-.1-.635-.375-.077-.372-.16-.744-.207-1.12-.066-.524-.108-1.05.446-1.385a.774.774,0,0,0,.221-.239q.905-1.358,1.8-2.722c.1-.158.181-.333.271-.5a.618.618,0,0,0-.252.216c-.669.832-1.33,1.671-2.013,2.492a4.8,4.8,0,0,1-.649.54,6.507,6.507,0,0,1-.027-2.295,5.22,5.22,0,0,0-1.84.7,8.1,8.1,0,0,0-3.046,3.331,18.658,18.658,0,0,0-2.039,5.524c-.052.309-.078.622-.115.933a.4.4,0,0,0,.154-.229c.372-1.093.729-2.191,1.12-3.277a10.19,10.19,0,0,1,2.146-3.993c.655-.653,1.31-1.306,1.984-1.938a1.728,1.728,0,0,1,.6-.323c.317-.114.477.007.5.344.007.108-.024.22-.007.326q.1.607.221,1.21c.041.206.13.4.15.611.084.876.108,1.76.237,2.628.1.649.551.772,1.112.424,1.09-.678,2.2-1.334,3.3-1.993.247-.148.508-.271.86-.456A18.6,18.6,0,0,1,1625.89-1645.762Zm6.156-21.365-.121-.024a1.019,1.019,0,0,0-.189.167,2.31,2.31,0,0,1-1.559.925,4.919,4.919,0,0,1-2.632-.274,7.791,7.791,0,0,0-4.249-.192,3.072,3.072,0,0,0-1.139.527,15.043,15.043,0,0,0-1.243,1.105c-.119.107-.243.208-.334.286.82-.329,1.641-.71,2.5-.99a5.819,5.819,0,0,1,4.4.107,5.643,5.643,0,0,0,2.64.51,1.931,1.931,0,0,0,1.927-1.472A2.464,2.464,0,0,0,1632.047-1667.127Zm-5.678,4.828c-.123.036-.246.075-.37.107a1.917,1.917,0,0,1-1.186-.024,6.593,6.593,0,0,0-1-.3,4.191,4.191,0,0,0-3.421.667c-.165.119-.307.269-.515.453a5.91,5.91,0,0,1,3.132,1.005.689.689,0,0,0,.447.1A4.618,4.618,0,0,0,1626.369-1662.3Zm6.057,8.966a.633.633,0,0,0,.081-.071,1.146,1.146,0,0,0,.069-.111,3.041,3.041,0,0,0,.145-2.533,9.706,9.706,0,0,0-.74-1.554c-.469-.849-.971-1.681-1.455-2.515a5.48,5.48,0,0,0-.422,2.609,1.4,1.4,0,0,0,.5.981,4.189,4.189,0,0,1,1.586,2.278C1632.244-1653.952,1632.338-1653.663,1632.426-1653.333Zm2.615-1.85.089.049a12.116,12.116,0,0,0,.7-1.111,4.512,4.512,0,0,0,.094-3.039,7.616,7.616,0,0,0-1.329-2.851,5.965,5.965,0,0,1-.6-1.044,1.765,1.765,0,0,1,.221-1.99.5.5,0,0,0,.11-.26c.025-.272-.131-.378-.388-.279a1.874,1.874,0,0,0-.737,2.9,18.668,18.668,0,0,1,1.322,1.82,5.681,5.681,0,0,1,.806,4.25Q1635.188-1655.96,1635.041-1655.183Zm-13.87-11.775c.035-.016.072-.029.105-.048a12.106,12.106,0,0,1,4.772-1.46,15.989,15.989,0,0,0,2.351-.327,3.959,3.959,0,0,0,2.68-1.921,1.214,1.214,0,0,0,.125-.559c0-.094-.17-.279-.209-.266-.273.1-.635.162-.775.369a3.631,3.631,0,0,1-1.156,1.126,7.961,7.961,0,0,1-2.868.936c-.718.116-1.453.159-2.156.333A5.491,5.491,0,0,0,1621.171-1666.958Zm-3.962,8.358a5.564,5.564,0,0,0-1.675,2.373,1.331,1.331,0,0,0,.663,1.611.6.6,0,0,0,.914-.239,3.823,3.823,0,0,0,.205-.478.492.492,0,0,0-.107-.557,1.876,1.876,0,0,1-.363-1.722C1616.929-1657.931,1617.072-1658.234,1617.208-1658.6Zm21.064-8.948a5.582,5.582,0,0,0-.825.911,4.96,4.96,0,0,0-.646,3.878c.088.314.159.634.22.954.162.843.314,1.688.472,2.547a.391.391,0,0,0,.064-.085,1.581,1.581,0,0,0,.059-.219,4.5,4.5,0,0,0-.123-1.809,6.478,6.478,0,0,1,.3-4.527q.229-.451.482-.89A.73.73,0,0,0,1638.273-1667.549Zm-18.729,25.617a1.132,1.132,0,0,0,.382-1.022,1.075,1.075,0,0,0-.4-.661,1.988,1.988,0,0,0-2.392.9c.2-.055.368-.112.546-.151a4.524,4.524,0,0,1,.578-.1,1.044,1.044,0,0,1,1.231.812C1619.5-1642.09,1619.517-1642.03,1619.543-1641.931Z" transform="translate(-1201.953 1963.094)" fill="#ceab51"/>
  </g>
</svg>
