<svg xmlns="http://www.w3.org/2000/svg" width="100.409" height="100.409" viewBox="0 0 100.409 100.409">
  <g id="Group_56" data-name="Group 56" transform="translate(-843.3 -3704)">
    <rect id="Rectangle_96" data-name="Rectangle 96" width="71" height="71" transform="translate(893.505 3704) rotate(45)" fill="#400000"/>
    <g id="Rectangle_97" data-name="Rectangle 97" transform="translate(893.191 3715) rotate(45)" fill="none" stroke="#ceab51" stroke-width="1">
      <rect width="55" height="55" stroke="none"/>
      <rect x="0.5" y="0.5" width="54" height="54" fill="none"/>
    </g>
    <g id="Group_45" data-name="Group 45" transform="translate(-3070 8161)">
      <rect id="Rectangle_98" data-name="Rectangle 98" width="40" height="40" transform="translate(3943 -4427)" fill="none"/>
      <path id="Path_7208" data-name="Path 7208" d="M3994.677-4394.207l-13.505,2.137c.874,1.318,1.8,2.513,2.68,3.738.892,1.242,1.8,2.476,2.695,3.713s1.787,2.465,2.619,3.762c-.6-.429-1.192-.856-1.786-1.288q-3.836-2.789-7.672-5.581c-.344-.25-.68-.512-1.036-.743a4.536,4.536,0,0,0-.657-.284l-2.13,13.413-.1.01-2.123-13.4a3.016,3.016,0,0,0-.565.243q-5.259,3.812-10.51,7.636a1.171,1.171,0,0,1-.2.067c.476-.658.9-1.242,1.321-1.824q3.19-4.386,6.375-8.776a2.656,2.656,0,0,0,.231-.615l-13.4-2.128-.005-.1,13.405-2.123a3.193,3.193,0,0,0-.264-.614q-3.473-4.8-6.961-9.589a5.643,5.643,0,0,1-.638-1.037q2.754,2,5.508,4c1.844,1.329,3.649,2.712,5.6,4.029l2.148-13.534.1-.009,2.146,13.547c3.786-2.7,7.455-5.415,11.224-8.017-.2.283-.407.566-.613.849q-3.529,4.854-7.056,9.71a5.069,5.069,0,0,0-.308.572l13.485,2.14Z" transform="translate(-12.792 -12.782)" fill="#ceab51"/>
    </g>
  </g>
</svg>
